<svg version="1.2" xmlns="http://www.w3.org/2000/svg" viewBox="0 0 513 513" width="513" height="513">
	<title>flask-original-svg</title>
	<style>
		.s0 { fill: #ffffff } 
	</style>
	<path id="Layer" fill-rule="evenodd" class="s0" d="m155.3 429.8c-19.1-15-39.3-29.3-53.2-49.5-29.2-35.6-51.7-76.9-67-120.3-9.3-28.2-12.5-58.4-24.5-85.5-12.5-19.7 2.2-41.2 23.7-47.4 9.6-1.9 26.5-11 6.1-4.4-18.2 13.4-20-12.2-1.3-13.9 12.8-1.7 17.5-12.1 13.1-21.5-13.7-9 33.3-18.8 9.7-32.2-24.7-26.6 34.4-31.7 19.8-1.5-3.4 23.2 41.3-4.3 30.9 22.6 10.6 12.8 39.6 2.9 38.8 21 15.4 1 20.7 13.9 35.1 14.9 15 6.8 42.1 12.1 47.2 29-14.8 11.7-49.2-24.3-50.9 8.3 4.5 48 3.4 97.6 21 143.3 8.3 27.7 28.4 49.5 46.6 71.1 17.5 21.2 41 36.1 65.1 48.6 21.1 9.9 43.9 16.5 66.9 20.7 9.3-7.2 25.8-33.7 40.4-22.5 0.7 12.6-28.9 26.3-1.4 24.9 16.1-4.8 27.3 12.5 40.6-3.2 12.3 14.5 50.9-9.2 42.2 20.4-11.8 7.6-29 3-40.8 13.5-19.5-9.7-34.9 8.7-56.5 6.4-23.9 4.2-48.2 6-72.5 6-39.8-3.2-80.5-4.5-118.3-18.3-21.3-6.2-42.1-18.4-60.8-30.5zm33.6 14.6c20.8 9 41.2 18.5 64 21.3 36.2 5.1 73.6 12.8 109.9 5.7-16.4-7.4-33.4 2.9-49.8-5.3-19.7 4.3-40.8-1-60.7-3.6-22.7-10.2-47.2-17.1-68.5-30.3-26.6-9.7 13.7 12.5 20.9 14.3 16.6 9.4-18.3-4.9-23.2-8.8-13.9-7.8-15.7-6.1-1.4 1.8 2.9 1.6 5.8 3.4 8.8 4.9zm-39.7-28c20.2 7.4 0-14.3-9.3-13-4.1-7.1-15.6-11.6-7.5-15.4-14.6 5.1-15.4-19.4-22.2-15.9-15.5-4.9-6.1-22.3-24.5-32.9-1.7-11.3-18.4-21-23.7-37.9-2.3-8.7-18.8-33.6-8.7-10.4 8.6 22.3 23.8 41.4 36.4 60.5 9.8 18.1 21.4 37.1 39.2 48.5 6 5.8 11.8 14.7 20.3 16.5zm104.6 12.5c16.1-9.7 10.8 22.5 27.3 2.7 16.3-11.9-14.1 14.7 6 2.1 14.5-9.7 35.9 4.6 49.4 9.2 9.8-0.5 19.3 8.4 29.2 3 19.2-5.1-37.6-7.6-22.7-16.8-17.6 5.1-30.6-6.1-39.2-17.4-19.7-4.5-42.5-14.6-52.4-32.1-4-6.6 5.8 1-3.4-9.8-11.9-10.6-17.9-22.6-25.8-35.4-9.5-5.1-10.7-20.1-11.6-0.5 0.1-12.3-11.5-20.7-14.4-17.2 0-11.9 12.5-5.9 3.7-14.7-1.9-12.3-8-25.1-9.9-39-2.8-6.7-0.4-21.1-9.8-5.9-3.4 16-1.1-19.7 4.2-7.9 6.8-11.6-1.8-10.7-2.8-9.2 4.5-10.1 2.7-24.3-1.3-18.9 2.4-10.7 3.8-39.5-3.7-34.4 4.6-11.3 8.7-51.5-11.1-36.1-8 0.1-21.8 2.9-28.4 6.1 20.6 11.3-2 4.1-10.4 2.3-1.1 10.5-9.3 6-19.7 6.1 16.5 2-8 16.8-17.5 11.1-12.3 5.9 10.6 20.5 0.2 25.1 1.3 6.8-18.8-2.5-17.2 13.3-11.9-5.1-1.6 18.7 4.3 10.7 20.3 5.5 14.3 18 14.8 29.9-3.3 6.9-16.3-16.3-2.9-15.2-10.6-17.2-11.7-6.2-20.5 1.7-2 0.6 22.4 11.4 7.1 16.8 13.5 2.1 13.9 13.9 16.7 21.4 8.1 8.4 6.4-9.4 16.1 0.8-6.1-9.1-32.6-25.6-11.3-20.3-0.1-9.1-3.9-16.5 2.7-16.3 6.5-11.7-6.8 28.8 7.8 14 4-1.8 5-11.7 12.3 0.9 10.5 10.3 3.8 17.9-11.1 8.4 2.7 9 19.9 12.2 16.6 26.3 3.5 12.4 8.3 7.8 12.5 7.1 3.2 12.1 5.1 3.2 5.3-2.5 15 3.2 11.5 12.1 16.1 18.3 10.4 4.6-14.7-31.7 3-11 17.2 15.5 8.7 22.7-5.8 21.7 7.8 2.6 11.9 13.8 23.4 13.4 12.1 5.7 20.3 27.9-0.6 18.6-7.2-6.5-32.9-14.5-11.9-2.1 19.3 8.9 34.7 14.3 53.3 25.5 13.3 9.6 19.1 20.4 24.2 22.6-11.2 5.3-33.8-4.3-17-7.2-10.5-1.9-22.2-7.2-12.2 5.8 8.5 7.1 30.2 6.4 34.1 7.1-3.3 7.3-9 7.9 0.1 8.4-10.1 5.5 3.3 6.4 4.2 9.5zm-72.2-188.9q-0.1 0.1-0.1 0.2 0-0.1 0.1-0.2zm-25.4 87.3c-1.2-0.4-2.5-0.6-3.9-0.4q2 0.3 3.9 0.4zm82 126.6c8.2 5.2 48.2 11.4 23.2 2.1-4.2 0.9-46.5-11.9-23.2-2.1zm-91.4-74.2c9.7 7.4 39.1 0.9 14.8-4.4-11-5.9-35.9-9.9-19 3.5zm47 24.9c23.7 6.7-19.9-15-5.9-2.5l3.2 1.4zm-54.8-51.9c7.1 5.3 26.7 14.9 10.1 2 5.6-6.5-10.7-10-5.3-14.3-13.8-8.4-10.9-7.7-1.2-7.4-16.5-7.4 2.3-6.8 1.4-10.6-6.3-1.3-31.6-11.3-16.7 0.8-15.1-7.7-3.6 2.9-8.2 1.8-15.5-4.3 13.8 11.7-2.4 7.7 8.8 7 23.8 18 3.7 7.5-2.6 3.8 14.4 9.6 18.6 12.5zm55 39.4c17.2 2.2-20.5-11.7-3.8-1.3zm39.2-21.6c-6.2-6.4-7.7-18.5-1.1-8 3.4 1.3 11 19.7 1.1 8zm-132-71.3c10.7 2.5 43 26.5 23.9 1.7-9.7-2.9-3.9-26.7-13.8-22.5 6.6 11.2 5.5 15.9-8.6 8.9-17.5-8.6-9.9 4.2-6.4 7.7-4.7 1.2 6.3 4.1 4.9 4.2zm92.5 6.3c-7.3-16.4 5.2-9 1.6 2.7zm-67.5-45c-3.3-5.4-8.7-21.3-7-26.1 1.6 7.9 16.8 33.9 7.4 10.8-10.2-19.4 12.3 6.3 14.7 11.1 1 4.8-6.4-1.3-1.3 9.9-9.2-12.8-5.4 7.1-13.8-5.7zm-34.1-28.7c-7.8-7.7-13.4-14.8 0.4-4.8 5.3 0.2-11.8-16.2 1.2-5.2 13.8 2.5 6.8 22.5-1.6 10zm4.7-11.8c-22.6-20.1 28.4 10.5 3.7 3.7zm64.7 37.6c-9.8-5.8-2.6-41.3 0.7-17 9.5-3.1-0.5 12.5 6.6 12.3-1.1 9.8-4.3 13.4-7.3 4.7zm-60.3-44.2c-14.5-20 42.2 20.3 9.3 5.1-3.5-1-7.6-1.3-9.3-5.1zm2.2-7.6c8.7-1.9 35.8 15.1 10.9 4.8-2.8-3.1-8.7-1.7-10.9-4.8zm74.1 36.9c0.9-17.3 5.2-10.3 0 2.5zm-67.6-43c3.5-5.2-9.4-23.3 1.8-6.5 4.9 3.8 14 6.4 5.9 8 12.8 11.3-3.1 3.1-7.7-1.5zm56.2-9.2c-4.5-7.9 5.7-34.9 6.8-18.1-4.7 13-1.3 20.2 1.9 2.8 6.2-13.8-1.3 27.1-8.7 15.3zm-142.5-13.3c-2-11.1-1.7-30.6 16.9-24-24.8 4.9 17.1 30.8 11.8 10.4 10.5 0.4 20.4-6.2 15 3.9 20.5-2.2 34.7-20 54.6-17.6 15.4-2 32.3-3.6 48.9-9.8 13.7-1 26.9-15.7 19.4-24.4-18.6-1.6-38.2 0.7-58.8 4.8-22.8 4.8-43.6 13.8-66.7 17.7-22.5 3 4.5 8.3-1.9 9.5-11.8 4 14 6.8-1.6 11.1-9.5-1.9-19.5-5.1-15.4-15.2-21.6 2.8-40.5 11.7-23.5 33.6zm161.2 205.8c12.8 3.3 12.7-2 1.1-3.5-6.2-5.8-25.9-12-8.3-0.8 1.2 3 4.9 2.9 7.2 4.3zm114.9 63.8c6.8-6.5 0.2 10.5 11.2-1.6 0.2-8.6-0.3-13.8-12.6-3.2-3.3 1.9-4.9 9.8 1.4 4.8zm-111-71.2c7.6 6.7 34.7 4.9 9.2 0.8-3.8-5.6-24-4.2-9.2-0.8zm-124.1-83.4c-11-15.6-6.8-22.6-17.4-35.4-2-9.7-18.1-31.9-8.3-8.4 8.9 13.7 11.6 34.9 25.7 43.8zm264.7 159c11.4-7.3-2.7-6.2-2.1 0.7zm18.4 5c14.7-10.6-8.9-2-3.1 2zm-295.3-195.7c1.9-8-17.8-43.8-9.3-18 3 5.5 2.7 15.7 9.3 18zm336.7 185.9c10.6-2.2 34.9 5.4 38.8-2.9-12.9-0.3-44.7-9.1-46.2 2.1l2.8 0.5zm-331.8-231.7c10.8-4.2-19.5-8.7-2.2-0.8zm18.4-63.9c5-18.7 27 15.2 8.2 2.4-2.2-1.7-5.9-3-8.2-2.4zm10.2-8.9c0.7-8.6 21.2 4.5 3.4 3.1zm15.9-7.3c7.7-9.3 43.5-5.9 17.3-0.9-7-5.3-12.4 3.1-17.3 0.9zm60.1-7.3c4.9-12.7 18.9-5.1 2.3-2.6 0.3 1.4-0.5 6.6-2.3 2.6zm312.6 319.2c11.6 0 35.2-3.6 9.9-3.6-3.9 0.6-23 0.5-9.9 3.6zm-399.7-253.9c9.4-0.7 14.7-10.4-1.8-9.8-25.6-2.7 22.6 8.7-3.3 5.5-3.5 2.3 4.9 4.9 5.1 4.3zm-13.1-74.2c15.3-5.2 35.8-11 45.3-0.5-4.7-8.2-0.1-14.3 6.6-1.7 9.4 12.6 14.7-2 11.2-9 7.3 8.2 14 11 3.3-1.7 12.7-15.3-25.5 2-34.2 1.8-4.1 1.9-43 9.9-32.2 11.1zm45.3-0.5q0.8 1.6 2.2 3.3-1-1.8-2.2-3.3zm17.8-10.7q-1.1-1.1-2.1-2.4c0.9 0.6 1.6 1.5 2.1 2.4zm-53.3-7.6c9.6-7.2 33.1 4.3 18-7.1-1.5-1.4-33.1 8.7-18 7.1zm34.9 1.5c11.2 0.2-4.9-15.1 8.5-8.1-2.3-7.2-15.6-8.5-22.1-11.4-3.7 6.6 7.5 19.6 13.6 19.5zm-14.6-28.3c18.1-2.4-4.6-7.7-3.6-0.2zm-26.6-20.7c-12.7-16.6 23.9 2.8 11-14.6-10.9-8.6-21.3 9.7-11 14.6zm162.8 87.7c5.8-10.3-24-13.9-3.9-3.7 1.9 0.6 1.5 4.4 3.9 3.7z"/>
</svg>