<svg version="1.2" xmlns="http://www.w3.org/2000/svg" viewBox="0 0 128 128" width="128" height="128">
	<title>vercel-original-wordmark-svg</title>
	<style>
		.s0 { fill: #ffffff } 
	</style>
	<path id="Layer" fill-rule="evenodd" class="s0" d="m72.7 64.9q0 0.2 0 0.4 0 0.2 0 0.4-0.1 0.2-0.1 0.4 0 0.2-0.1 0.4h-12.6c0.7 1.8 2.5 2.9 4.7 2.9 1.6 0 2.9-0.6 3.8-1.6l3.5 2c-1.6 2-4.3 3.2-7.3 3.2-5 0-9-3.2-9-8.1 0-4.9 3.6-8.1 8.5-8.1 5 0 8.6 3.2 8.6 8.1zm-4.3-1.6c-0.6-1.8-2.1-2.9-4.3-2.9-2.1 0-3.7 1.1-4.2 2.9zm-9.6-11.5l-12.4 21.7-12.5-21.7h4.6l7.9 13.6 7.8-13.6zm-42.3-2.2l16.7 28.8h-33.3zm74.2 15.3c0 2.7 1.7 4.6 4.5 4.6 1.8 0 3.2-0.9 3.9-2.3l3.5 2c-1.4 2.4-4.1 3.9-7.4 3.9-5 0-8.6-3.3-8.6-8.2 0-4.8 3.6-8.1 8.6-8.1 3.3 0 6 1.5 7.4 3.9l-3.5 2c-0.7-1.4-2.1-2.3-3.9-2.3-2.8 0-4.5 1.8-4.5 4.5zm37.1-13v20.7h-4v-20.7zm-6.8 13q0 0.2 0 0.4 0 0.2 0 0.4 0 0.2-0.1 0.4 0 0.2 0 0.4h-12.7c0.7 1.8 2.6 2.9 4.7 2.9 1.6 0 2.9-0.5 3.9-1.5l3.4 2c-1.6 2-4.3 3.2-7.3 3.2-5 0-9-3.3-9-8.2 0-4.8 3.6-8.1 8.6-8.1 4.9 0 8.5 3.3 8.5 8.1zm-4.3-1.5c-0.5-1.8-2.1-3-4.2-3-2.2 0-3.7 1.2-4.3 3zm-31.5-6.1v4.4q-0.2-0.1-0.4-0.1-0.2-0.1-0.3-0.1-0.2 0-0.4-0.1-0.2 0-0.4 0c-2.6 0-4.5 1.8-4.5 4.5v6.7h-4v-15.3h4v4.1c0-2.3 2.7-4.1 6-4.1z"/>
</svg>